<?xml version="1.0" encoding="UTF-8"?>
<svg xmlns="http://www.w3.org/2000/svg" viewBox="0 0 339 302">
  <circle cx="159.671" cy="148.637" r="135.949" fill="#000"/>
  <path d="M 148.00 196.00 L 148.00 194.00 L 146.00 194.00 L 134.00 188.00 L 136.00 186.00 L 142.00 183.00 L 143.00 182.00 L 143.00 180.00 L 133.00 180.00 L 132.00 181.00 L 123.00 181.00 L 122.00 182.00 L 112.00 182.00 L 111.00 183.00 L 100.00 183.00 L 99.00 184.00 L 87.00 184.00 L 86.00 185.00 L 75.00 185.00 L 75.00 187.00 L 77.00 187.00 L 78.00 188.00 L 89.00 188.00 L 90.00 189.00 L 101.00 189.00 L 102.00 190.00 L 113.00 190.00 L 115.00 192.00 L 125.00 192.00 L 126.00 193.00 L 131.00 193.00 L 132.00 194.00 L 131.00 195.00 L 131.00 197.00 L 140.00 197.00 L 141.00 196.00 Z" fill="#fff"/>
  <path d="M 152.00 126.00 L 151.00 142.00 L 157.00 163.00 L 158.00 172.00 L 155.00 179.00 L 149.00 185.00 L 149.00 188.00 L 165.00 195.00 L 166.00 197.00 L 145.00 211.00 L 146.00 214.00 L 155.00 220.00 L 159.00 221.00 L 159.00 219.00 L 151.00 212.00 L 180.00 195.00 L 199.00 195.00 L 199.00 193.00 L 196.00 191.00 L 203.00 189.00 L 241.00 187.00 L 241.00 185.00 L 237.00 184.00 L 167.00 180.00 L 165.00 178.00 L 163.00 163.00 L 155.00 145.00 L 154.00 126.00 Z" fill="#fff"/>
  <path d="M 194.00 95.00 L 192.00 95.00 L 191.00 94.00 L 188.00 94.00 L 187.00 93.00 L 180.00 93.00 L 179.00 94.00 L 175.00 94.00 L 174.00 95.00 L 173.00 95.00 L 172.00 96.00 L 171.00 96.00 L 170.00 97.00 L 169.00 97.00 L 167.00 99.00 L 167.00 101.00 L 169.00 101.00 L 170.00 100.00 L 171.00 100.00 L 172.00 99.00 L 173.00 99.00 L 174.00 98.00 L 176.00 98.00 L 177.00 97.00 L 179.00 97.00 L 180.00 98.00 L 179.00 99.00 L 178.00 99.00 L 177.00 100.00 L 176.00 100.00 L 175.00 101.00 L 174.00 101.00 L 173.00 102.00 L 172.00 102.00 L 171.00 103.00 L 170.00 103.00 L 165.00 108.00 L 165.00 110.00 L 166.00 110.00 L 167.00 111.00 L 169.00 111.00 L 170.00 112.00 L 173.00 112.00 L 174.00 111.00 L 176.00 111.00 L 177.00 110.00 L 178.00 110.00 L 179.00 109.00 L 180.00 109.00 L 184.00 105.00 L 184.00 104.00 L 186.00 102.00 L 187.00 102.00 L 189.00 100.00 L 190.00 100.00 L 192.00 98.00 L 194.00 98.00 Z" fill="#fff"/>
  <path d="M 131.00 76.00 L 131.00 78.00 L 133.00 80.00 L 133.00 81.00 L 136.00 84.00 L 136.00 85.00 L 137.00 86.00 L 137.00 88.00 L 138.00 89.00 L 138.00 91.00 L 139.00 92.00 L 139.00 94.00 L 140.00 95.00 L 140.00 97.00 L 141.00 98.00 L 141.00 99.00 L 145.00 103.00 L 146.00 103.00 L 147.00 104.00 L 150.00 104.00 L 151.00 105.00 L 153.00 105.00 L 153.00 100.00 L 152.00 99.00 L 152.00 97.00 L 151.00 96.00 L 151.00 95.00 L 150.00 94.00 L 150.00 93.00 L 149.00 92.00 L 149.00 91.00 L 145.00 87.00 L 145.00 86.00 L 146.00 85.00 L 151.00 90.00 L 151.00 91.00 L 153.00 93.00 L 153.00 94.00 L 154.00 95.00 L 154.00 96.00 L 155.00 97.00 L 155.00 98.00 L 157.00 98.00 L 157.00 95.00 L 156.00 94.00 L 156.00 92.00 L 155.00 91.00 L 155.00 90.00 L 153.00 88.00 L 153.00 87.00 L 148.00 82.00 L 147.00 82.00 L 145.00 80.00 L 144.00 80.00 L 143.00 79.00 L 142.00 79.00 L 139.00 77.00 L 137.00 77.00 L 136.00 76.00 Z" fill="#fff"/>
</svg>